<svg xmlns:dc="http://purl.org/dc/elements/1.1/" xmlns:cc="http://creativecommons.org/ns#" xmlns:rdf="http://www.w3.org/1999/02/22-rdf-syntax-ns#" xmlns:svg="http://www.w3.org/2000/svg" xmlns="http://www.w3.org/2000/svg" xmlns:xlink="http://www.w3.org/1999/xlink" xmlns:sodipodi="http://sodipodi.sourceforge.net/DTD/sodipodi-0.dtd" xmlns:inkscape="http://www.inkscape.org/namespaces/inkscape" version="1.0" id="Layer_1" x="0px" y="0px" width="999.99957" height="285.47845" viewBox="0 0 999.99957 285.47847" enable-background="new 0 0 320.784 275.417" xml:space="preserve" sodipodi:docname="Star+_(2021).svg" inkscape:version="1.0.2 (e86c870879, 2021-01-15)"><script xmlns="" id="youtube-hd-{4cf120ba-c67a-47a9-9c99-7ab813d08379}">var ythdlog = () =&gt; {};;var ythderror = () =&gt; {};</script><metadata id="metadata17"><rdf:RDF><cc:Work rdf:about=""><dc:format>image/svg+xml</dc:format><dc:type rdf:resource="http://purl.org/dc/dcmitype/StillImage"/><dc:title/></cc:Work></rdf:RDF></metadata><defs id="defs15"><linearGradient inkscape:collect="always" xlink:href="#linearGradient923" id="linearGradient952" x1="808" y1="-5.6176453" x2="806.11475" y2="458.38235" gradientUnits="userSpaceOnUse"/><linearGradient y2="505.2988" x2="440.56812" y1="119.3981" x1="440.56812" gradientUnits="userSpaceOnUse" id="linearGradient923"><stop id="stop27-9" style="stop-color:#11152E" offset="0.2"/><stop id="stop29-6" style="stop-color:#020814" offset="0.8"/></linearGradient><linearGradient y2="117.4916" x2="996.28888" y1="500.29071" x1="613.48981" gradientUnits="userSpaceOnUse" id="Fill-1_1_"><stop id="stop4" style="stop-color:#FF1C6B" offset="0.3296"/><stop id="stop6" style="stop-color:#FF9702" offset="0.676"/></linearGradient><linearGradient inkscape:collect="always" xlink:href="#linearGradient923" id="linearGradient95" gradientUnits="userSpaceOnUse" x1="808" y1="-5.6176453" x2="806.11475" y2="458.38235"/><linearGradient y2="505.0654" x2="1251.0979" y1="119.4706" x1="1251.0979" gradientUnits="userSpaceOnUse" id="SVGID_1_"><stop id="stop13" style="stop-color:#11152E;fill-opacity:1.0;fill:url(#linearGradient952)" offset="0.2"/><stop id="stop15" style="stop-color:#020814;fill-opacity:1.0;fill:url(#linearGradient952)" offset="0.8"/></linearGradient><linearGradient y2="505.7063" x2="140.119" y1="119.5431" x1="140.119" gradientUnits="userSpaceOnUse" id="SVGID_2_"><stop id="stop20" style="stop-color:#11152E;fill-opacity:1.0;fill:url(#linearGradient952)" offset="0.2"/><stop id="stop22" style="stop-color:#020814;fill-opacity:1.0;fill:url(#linearGradient952)" offset="0.8"/></linearGradient><linearGradient y2="505.2988" x2="440.56812" y1="119.3981" x1="440.56812" gradientUnits="userSpaceOnUse" id="SVGID_3_"><stop id="stop27" style="stop-color:#11152E;fill-opacity:1.0;fill:url(#linearGradient952)" offset="0.2"/><stop id="stop29" style="stop-color:#020814;fill-opacity:1.0;fill:url(#linearGradient952)" offset="0.8"/></linearGradient>
	
	
	
	
		<linearGradient id="path3144_1_" gradientUnits="userSpaceOnUse" x1="432.90948" y1="-126.3625" x2="646.26062" y2="86.792999" gradientTransform="matrix(0.98565272,0,0,-0.98565272,-81.99061,148.87198)">
		<stop offset="0.28" style="stop-color:#FA1660" id="stop8"/>
		<stop offset="0.78" style="stop-color:#FF7D17" id="stop10"/>
	</linearGradient>
	
</defs><sodipodi:namedview pagecolor="#ffffff" bordercolor="#666666" borderopacity="1" objecttolerance="10" gridtolerance="10" guidetolerance="10" inkscape:pageopacity="0" inkscape:pageshadow="2" inkscape:window-width="1366" inkscape:window-height="705" id="namedview13" showgrid="false" inkscape:zoom="1" inkscape:cx="556.62375" inkscape:cy="155.43248" inkscape:window-x="-8" inkscape:window-y="-8" inkscape:window-maximized="1" inkscape:current-layer="Layer_1" inkscape:document-rotation="0"/>






<g style="font-weight:bold;font-size:590.996px;line-height:1;font-family:'Avenir Next LT Pro';-inkscape-font-specification:'Avenir Next LT Pro Bold';text-align:center;letter-spacing:3.46px;word-spacing:0px;text-anchor:middle;fill:url(#linearGradient95);fill-opacity:1;stroke-width:3.0781" id="text874" transform="matrix(0.59343609,0,0,0.52120939,13.347199,-3.2856471)" aria-label="STAR+"/><style type="text/css" id="style2">
	.st0{fill:#241C32;}
	.st1{fill:url(#path3144_1_);}
</style><g id="g101"><path inkscape:connector-curvature="0" id="path935" style="font-style:normal;font-variant:normal;font-weight:bold;font-stretch:normal;font-size:590.996px;line-height:1;font-family:'Century Gothic';-inkscape-font-specification:'Century Gothic Bold';text-align:center;letter-spacing:3.46px;word-spacing:0px;text-anchor:middle;fill:#241c32;fill-opacity:1;stroke-width:3.64691" d="M 1458.2986,257.71621 V 123.83587 h 81.8553 v 133.88034 h 122.4554 v 89.25355 h -122.4554 v 133.52331 h -81.8553 V 346.96976 h -122.7827 v -89.25355 z" transform="matrix(0.59343609,0,0,0.52120939,13.347199,-3.2856471)"/><path id="path11" class="st0" d="m 661.90785,80.273765 h 30.55079 c 18.39282,0 30.16111,9.508154 30.16111,26.108455 0,18.08108 -11.76829,29.84937 -30.16111,29.84937 h -30.55079 z m 52.60659,92.353795 c 31.64189,-4.05265 57.75035,-31.25221 57.75035,-65.85566 0,-44.890959 -30.55079,-69.518638 -79.80615,-69.518638 H 612.96423 V 263.18884 h 48.94362 v -90.56128 l 60.7119,90.48334 H 779.279 Z" style="stroke-width:0.779357"/><polygon id="polygon13" class="st0" points="409.3,104.8 409.3,47.7 218.1,47.7 218.1,104.8 281.8,104.8 281.8,337.5 345.6,337.5 345.6,104.8 " transform="matrix(0.77935694,0,0,0.77935694,0,0.07793569)"/><path id="path15" class="st0" d="M 78.01363,120.41065 C 63.283784,113.78611 57.750349,106.46016 57.750349,96.874068 c 0,-11.066869 9.196412,-20.263281 23.926258,-19.873602 12.85939,0.311742 22.835163,7.325955 29.849373,23.926254 l 42.31908,-18.782499 c -11.76829,-30.161113 -35.69455,-47.77458 -74.272716,-47.77458 -40.838304,0 -70.9994177,26.887814 -70.9994177,62.894105 0,24.627684 12.1579687,44.111604 40.8383037,58.529704 l 31.641892,15.82095 c 17.613467,8.88467 26.108458,15.43127 26.108458,28.29066 0,13.95048 -11.378612,23.92625 -26.108458,23.92625 -15.820946,0 -30.161114,-8.88467 -36.785648,-28.68033 L 0,208.01037 c 10.287512,37.17532 40.838304,58.91938 80.585508,58.91938 43.020502,0 76.143172,-27.58923 76.143172,-67.33644 0,-30.55079 -16.52237,-50.81407 -48.24219,-65.0763 z" style="stroke-width:0.779357"/><path id="path3144-6" inkscape:connector-curvature="0" class="st1" d="M 599.71517,108.9541 H 485.07176 L 449.61102,0 414.15028,108.9541 H 299.50687 l 91.96412,67.49231 c 0,0 44.9689,-29.61556 99.44595,-40.76037 -80.3517,59.30907 -123.99569,118.15052 -123.99569,118.15052 v 0 0 l -10.05371,31.64189 92.74348,-67.33644 92.74347,67.33644 -35.3828,-109.03204 z" style="fill:url(#path3144_1_);stroke-width:0.779357"/></g></svg>