<?xml version="1.0" encoding="UTF-8"?>
<!-- Generator: Adobe Illustrator 16.0.0, SVG Export Plug-In . SVG Version: 6.00 Build 0)  -->
<!DOCTYPE svg PUBLIC "-//W3C//DTD SVG 1.1//EN" "http://www.w3.org/Graphics/SVG/1.1/DTD/svg11.dtd">
<svg version="1.1" id="Layer_1" xmlns="http://www.w3.org/2000/svg" xmlns:xlink="http://www.w3.org/1999/xlink" x="0px" y="0px" width="1000px" height="230.363px" viewBox="-161.599 95.381 1000 230.363" enable-background="new -161.599 95.381 1000 230.363" xml:space="preserve">
<path fill="#0064FF" d="M94.026,154.07c0-39.614-42.017-58.689-91.935-58.689c-53.398,0-102.392,23.657-120.375,60.339  c-4.963,9.773-7.542,20.584-7.528,31.546c-0.227,9.479,2.396,18.807,7.528,26.779c7.705,11.377,21.466,18.527,41.652,18.527  c24.776,0,44.411-13.576,44.411-37.234c0,0,0.364-6.598-7.341-6.598c-6.239,0-7.893,4.399-7.708,6.598  c0.922,18.525-10.092,33.382-29.728,33.382c-22.014,0-31.197-18.708-31.197-38.698c0-40.902,30.829-68.05,62.942-79.786  c15.007-5.667,30.944-8.47,46.985-8.259c36.333,0,66.061,13.942,66.061,51.361c0,31.175-26.24,57.77-57.623,60.157l1.284-4.216  c6.425-22.929,14.315-48.054,27.157-66.58c0.739-1.107,2.02-2.936,3.489-4.768l-1.833-2.203c-2.746,1.666-5.383,3.503-7.897,5.501  c-60.183,46.956-62.011,179.01-142.209,179.01c-2.762,0-5.519-0.184-8.256-0.551c-16.696-2.75-25.51-13.941-25.51-29.523  c0-3.119,1.103-7.34,1.103-9.721c0.127-4.43-3.361-8.123-7.791-8.252c-0.035,0-0.068,0-0.101,0h-0.915  c-7.155,0-10.092,5.678-10.276,13.754c-0.548,23.293,16.696,36.861,43.309,39.434c2.933,0.182,5.87,0.363,8.99,0.363  c62.571,0,100.923-47.32,117.257-104.729c8.273-0.969,16.441-2.686,24.403-5.131C61.374,207.805,94.026,188.373,94.026,154.07z   M690.057,167.825h-22.029l-4.949,11.557l-8.629,19.441h-10.269l-3.133,6.604h10.652l-12.853,28.43  c-9.161,19.99-23.479,39.617-31.738,39.617c-1.832,0-2.94-0.738-2.94-2.566c0-1.826,0.547-3.49,2.571-8.623  c2.571-6.057,6.796-14.857,9.914-21.275c4.58-9.354,11.924-23.844,11.924-30.997c0-7.154-4.581-12.841-13.579-12.841  c-10.091,0-19.267,6.059-27.718,14.853l5.511-13.204h-20.729l-16.889,38.516c-6.782,13.574-20.553,36.133-29.182,36.133  c-1.832,0-2.571-1.102-2.571-2.934c0.179-1.648,0.612-3.258,1.286-4.771c0.738-1.65,10.83-25.309,10.83-25.309l18.351-42.001  h-22.384l-17.805,40.898c-5.496,12.658-19.443,34.117-28.442,34.117c-1.567,0.154-2.964-0.992-3.117-2.563c0,0,0,0,0-0.002v-0.738  c0-2.199,1.655-6.236,2.941-9.172l9.353-20.539l19.266-42.001h-22.192l-4.418,9.537c-3.294,6.417-8.806,13.937-17.611,13.937  c-4.225,0-6.235-1.646-7.151-3.299c-1.285-14.124-10.283-21.644-23.493-21.644c-18.351,0-31.381,10.821-40.011,24.029  c-5.653,9.104-10.094,18.906-13.206,29.158c-7.893,13.027-16.146,23.117-22.754,23.117c-1.653,0-2.756-0.922-2.756-3.121  c0-2.201,2.204-7.15,2.938-8.992l14.497-30.811c4.037-9.533,6.796-15.77,6.796-22.007c0-6.604-4.58-11.376-12.116-11.376  c-10.46,0-21.84,6.057-30.83,15.958c0.305-1.572,0.427-3.173,0.366-4.772c0-7.338-3.667-11.191-11.195-11.191  c-9.539,0-19.447,5.692-28.438,15.958l5.873-14.313h-20.189l-17.062,38.528c-8.073,18.16-21.102,36.139-28.445,36.139  c-1.649,0-2.751-0.924-2.751-3.121c0-3.484,3.854-12.105,5.32-15.59l22.573-51.17c1.651-3.85-9.178-6.238-22.94-6.238  c-14.129,0-28.627,6.973-39.267,15.958c-7.523,6.232-13.029,9.354-15.787,9.354c-0.899,0.193-1.785-0.381-1.979-1.279  c-0.026-0.121-0.038-0.246-0.036-0.369c0-3.119,7.523-11.927,7.523-18.711c0-3.117-1.649-5.137-5.875-5.137  c-8.069,0-17.616,7.705-24.588,15.772l5.873-14.125h-19.815l-17.063,38.519c-8.076,18.16-21.472,37.055-28.812,37.055  c-1.653,0-2.749-0.916-2.749-3.121c0-3.484,3.67-11.916,5.687-16.324l22.572-51.352c1.651-3.85-9.177-6.238-22.942-6.238  c-20.369,0-40.189,13.756-50.647,27.879c-11.559,15.219-19.447,31.361-19.633,44.57c-0.18,10.637,5.318,17.238,16.331,17.238  c12.296,0,22.208-9.719,27.893-17.057c-0.337,1.451-0.584,2.922-0.739,4.404c0,7.332,2.937,12.652,11.927,12.652  c7.889,0,18.35-6.602,26.792-17.057l-6.798,15.592h21.467l21.105-47.873c6.989-15.586,14.88-23.654,17.074-23.654  c0.505-0.096,0.993,0.234,1.091,0.738c0.01,0.059,0.016,0.119,0.016,0.178c0,1.652-3.301,6.059-3.301,10.088s2.195,7.15,8.076,7.15  c4.58,0,9.721-2.201,14.31-5.139c-10.826,14.678-18.173,30.084-18.173,42.742c-0.181,10.639,5.318,17.24,16.333,17.24  c11.558,0,22.385-11.006,28.257-18.342c-0.221,1.703-0.343,3.418-0.366,5.135c0,7.156,4.039,13.207,12.295,13.207  c9.172,0,16.515-5.689,25.69-16.873l-6.796,15.406h22.016l20.183-45.672c8.809-19.809,20.734-30.451,26.607-30.451  c1.467-0.151,2.782,0.915,2.935,2.384c0,0.002,0,0.006,0.001,0.008v0.547c-0.242,2.227-0.863,4.398-1.834,6.418l-28.967,66.947  h22.571l20.554-46.59c8.803-19.988,18.533-29.714,25.872-29.714c2.201,0,3.122,1.108,3.122,3.486  c-0.196,2.555-0.882,5.047-2.019,7.346l-19.821,42.18c-1.825,4.061-2.942,8.4-3.304,12.836c0,6.422,3.485,12.117,13.399,12.117  c12.854,0,22.571-9.721,33.577-24.211v3.117c0.921,11.555,7.342,21.643,24.406,21.643c20.184,0,36.524-13.941,46.424-36.129  c3.744-7.801,6.167-16.172,7.165-24.77c2.21,1.121,4.68,1.631,7.151,1.479c3.335,0.037,6.621-0.785,9.545-2.389l-3.486,7.518  c-4.049,8.439-8.452,17.793-11.924,25.686c-2.199,4.666-3.508,9.701-3.855,14.85c0,7.883,4.402,13.574,13.386,13.574  s21.291-8.438,30.098-20.359h0.191c-0.59,2.465-0.901,4.986-0.931,7.518c0,6.605,2.024,12.842,11.199,12.842  c10.653,0,18.898-7.705,26.979-17.428l-6.796,15.41h22.206l17.806-40.352c10.092-22.742,20.183-36.496,29.534-36.496  c1.607-0.057,2.981,1.148,3.133,2.75v0.543c0,3.855-5.511,14.309-10.461,24.762c-4.595,9.539-8.082,16.871-10.461,22.563  c-2.208,4.795-3.514,9.953-3.855,15.219c0,6.967,3.855,12.287,12.485,12.287c12.839,0,25.871-12.471,32.83-21.828  c-1.57,4.486-2.433,9.186-2.557,13.936c0,12.846,7.697,19.264,18.527,19.264c7.196-0.055,14.191-2.363,20.006-6.6  c8.437-5.873,15.234-14.674,20.922-22.744l-3.855-3.672c-5.319,7.521-11.199,14.676-17.258,19.078  c-3.193,2.699-7.199,4.25-11.378,4.402c-4.579,0-7.52-2.387-7.52-8.25s2.748-13.76,6.975-24.4  c0.176-0.178,6.234-13.754,11.923-26.773c4.772-11.012,9.544-21.645,10.461-23.846h14.495l2.938-6.604h-14.315L690.057,167.825z   M64.122,273.656c-3.118,0-5.32-1.1-5.32-5.135c0.182-10.824,9.171-30.08,20.372-45.49c7.888-10.637,18.163-18.521,29.174-18.521  L94.4,235.685C83.94,259.166,72.563,273.656,64.122,273.656z M201.383,273.656c-3.117,0-5.319-1.1-5.5-5.135  c0.182-10.824,9.172-30.08,20.369-45.49c7.886-10.637,18.165-18.521,29.175-18.521l-13.95,31.175  c-10.64,24.033-21.466,37.971-30.097,37.971H201.383z M445.071,212.951c-0.547,11.918-11.008,40.709-23.301,57.957  c-4.949,6.969-9.176,8.984-12.839,8.984c-5.143,0-6.62-4.221-5.882-10.455c1.094-10.82,10.092-36.131,22.577-53.555  c5.688-7.887,9.545-11.19,13.947-11.19C443.977,204.692,445.262,208.362,445.071,212.951z M787.559,198.821l20.212-46.649h-23.92  l-20.213,46.649h-50.841l-8.481,19.563h50.856l-20.212,46.648h23.92l20.214-46.648h50.84l8.467-19.563H787.559z"/>
</svg>