<?xml version="1.0" encoding="UTF-8"?>
<!-- Generator: Adobe Illustrator 16.0.0, SVG Export Plug-In . SVG Version: 6.00 Build 0)  -->
<!DOCTYPE svg PUBLIC "-//W3C//DTD SVG 1.1//EN" "http://www.w3.org/Graphics/SVG/1.1/DTD/svg11.dtd">
<svg version="1.1" id="Layer_1" xmlns="http://www.w3.org/2000/svg" xmlns:xlink="http://www.w3.org/1999/xlink" x="0px" y="0px" width="1000px" height="622.214px" viewBox="-161.599 -100.544 1000 622.214" enable-background="new -161.599 -100.544 1000 622.214" xml:space="preserve">
<path fill="#0064FF" d="M283.887,219.392c-2.459-1.02-6.49-5.543,0.216-18.138l15.578-32.558c0.473-0.984-0.664-2.216-1.374-1.38  l-13.621,13.695c-6.445,6.727-17.378,25.635-19.495,29.134L248.643,237.5c1.229-0.039,2.258,0.927,2.297,2.156  c0.012,0.405-0.085,0.805-0.283,1.159l-15.125,25.404c-3.693,6.3,2.942,10.704,3.841,9.254c23.773-38.291,37.6-35.234,37.6-35.234  l7.936-18.377c0.418-0.921,0.01-2.006-0.911-2.424C283.964,219.421,283.926,219.407,283.887,219.392z M337.935-100.544  c-135.92,0-246.104,110.13-246.104,245.983c-0.072,52.591,16.8,103.807,48.115,146.058c10.324-4.456,16.061-11.117,20.159-16.218  l45.823-58.576c0.965-1.235,2.225-2.206,3.665-2.825l6.898-2.967l75.345-95.524l10.925-8.549l22.45-31.233  c0.58-0.808,1.287-1.519,2.094-2.104l9.795-7.117c2.42-1.758,5.688-1.786,8.136-0.068l11.886,8.339  c6.306,4.423,11.417,10.338,14.88,17.217l47.61,83.586c0.777,1.595,2.098,2.86,3.724,3.568c9.337,4.646,15.041,5.467,27.261,18.735  c5.702,6.186,30.688,34.117,65.705,77.526c5.089,6.964,11.902,12.484,19.769,16.02c31.22-42.219,48.034-93.359,47.96-145.868  C584.031,9.585,473.852-100.544,337.935-100.544z M158.201,158.997l-15.957-5.18l-9.857,13.56v-16.758l-15.958-5.181l15.958-5.181  v-16.763l9.857,13.563l15.957-5.18l-9.859,13.562L158.201,158.997z M154.418,213.846l-5.183,15.943l-5.183-15.943h-16.771  l13.567-9.854l-5.182-15.942l13.568,9.854l13.569-9.854l-5.183,15.942l13.569,9.854H154.418z M157.621,86.876l5.183,15.942  l-13.569-9.854l-13.568,9.854l5.182-15.942l-13.567-9.854h16.771l5.183-15.942l5.184,15.942h16.771L157.621,86.876z M184.552,50.813  l-9.852-13.563l-15.957,5.18l9.858-13.561l-9.858-13.562l15.957,5.18l9.858-13.562v16.764l15.957,5.171l-15.957,5.182v16.763  L184.552,50.813z M226.495-7.873L221.312,8.07l-5.183-15.942h-16.772l13.569-9.854l-5.182-15.943l13.568,9.852l13.567-9.854  l-5.182,15.956l13.569,9.854h-16.772V-7.873z M279.348-34.791l-9.858,13.563v-16.759l-15.958-5.18l15.958-5.182v-16.763  l9.858,13.563l15.95-5.18l-9.858,13.562l9.859,13.561L279.348-34.791z M346.321-50.157l5.183,15.942l-13.569-9.854l-13.569,9.854  l5.177-15.935l-13.567-9.854h16.771l5.185-15.942l5.183,15.942h16.771L346.321-50.157z M406.374-37.987v16.763l-9.854-13.563  l-15.956,5.181l9.858-13.561l-9.857-13.562l15.957,5.18l9.854-13.563v16.763l15.957,5.182L406.374-37.987z M517.662,131.877  l15.956,5.18l9.855-13.563v16.763l15.958,5.181l-15.958,5.181v16.762l-9.855-13.561l-15.956,5.18l9.869-13.562L517.662,131.877z   M454.556,8.074l-5.186-15.943H432.6l13.564-9.854l-5.171-15.944l13.563,9.854l13.563-9.852l-5.172,15.942l13.565,9.854h-16.771  L454.556,8.074z M491.317,50.817V34.055l-15.957-5.182l15.957-5.171V6.931l9.854,13.562l15.957-5.18l-9.854,13.562l9.854,13.561  l-15.957-5.18L491.317,50.817z M521.443,77.027l5.188-15.942l5.186,15.942h16.77l-13.563,9.854l5.186,15.942l-13.577-9.854  l-13.564,9.854l5.186-15.942l-13.578-9.854H521.443z M531.816,213.846l-5.186,15.943l-5.188-15.943h-16.77l13.578-9.854  l-5.186-15.942l13.564,9.854l13.577-9.854l-5.186,15.942l13.563,9.854H531.816z M427.075,287.598  c1.182-1.718,3.103-6.43-0.503-15.162l-10.89-29.273c-1.478-3.737,1.759-6.004,3.931-3.547c0,0,20.582,23.722,25.901,33.627  l10.15,16.843c8.732,0.564,32.83,1.221,56.027,1.221c-2.336-2.319-4.493-4.811-6.457-7.454  c-39.583-49.053-64.687-76.34-64.938-76.61c-8.022-8.717-11.73-10.392-17.849-13.178c-0.886-0.402-1.847-0.836-2.836-1.307v7.447  c0.061,0.503-0.299,0.96-0.803,1.02c-0.407,0.048-0.798-0.18-0.955-0.559L359.658,98.482l-0.162-0.323  c-2.427-4.813-6.004-8.953-10.414-12.052l-5.677-3.989l-27.763,64.021c3.317-0.001,6.008,2.687,6.01,6.004  c0.001,0.821-0.167,1.634-0.494,2.388l-25.651,59.312h23.546c9.1,0,18.114,1.771,26.536,5.22l6.206,2.543  c0,0-18.725,38.509-18.725,58.786c0.027,3.688,0.542,7.355,1.529,10.908h43.163l-1.999-12.155  c16.932,3.78,34.062,6.604,51.311,8.459V287.598z M94.026,349.996c0-39.614-42.017-58.689-91.935-58.689  c-53.398,0-102.392,23.657-120.375,60.339c-4.963,9.773-7.542,20.584-7.528,31.546c-0.227,9.479,2.396,18.807,7.528,26.778  c7.705,11.377,21.466,18.528,41.652,18.528c24.776,0,44.411-13.576,44.411-37.234c0,0,0.364-6.598-7.341-6.598  c-6.239,0-7.893,4.399-7.708,6.598c0.922,18.525-10.092,33.383-29.728,33.383c-22.014,0-31.197-18.708-31.197-38.698  c0-40.902,30.829-68.05,62.942-79.786c15.007-5.667,30.944-8.47,46.985-8.259c36.333,0,66.061,13.942,66.061,51.361  c0,31.175-26.24,57.771-57.623,60.157l1.284-4.217c6.425-22.929,14.315-48.054,27.157-66.58c0.739-1.107,2.02-2.936,3.489-4.768  l-1.833-2.203c-2.746,1.666-5.383,3.503-7.897,5.501c-60.183,46.956-62.011,179.011-142.209,179.011  c-2.762,0-5.519-0.185-8.256-0.551c-16.696-2.75-25.51-13.941-25.51-29.524c0-3.118,1.103-7.339,1.103-9.72  c0.127-4.43-3.361-8.123-7.791-8.252c-0.035-0.001-0.068-0.001-0.101-0.001h-0.915c-7.155,0-10.092,5.678-10.276,13.754  c-0.548,23.294,16.696,36.862,43.309,39.434c2.933,0.182,5.87,0.364,8.99,0.364c62.571,0,100.923-47.32,117.257-104.729  c8.273-0.97,16.441-2.687,24.403-5.131C61.374,403.73,94.026,384.298,94.026,349.996z M690.057,363.75h-22.029l-4.949,11.557  l-8.629,19.441h-10.269l-3.133,6.604h10.652l-12.853,28.43c-9.161,19.991-23.479,39.617-31.738,39.617  c-1.832,0-2.94-0.738-2.94-2.565s0.547-3.49,2.571-8.623c2.571-6.057,6.796-14.858,9.914-21.276  c4.58-9.353,11.924-23.843,11.924-30.996c0-7.154-4.581-12.841-13.579-12.841c-10.091,0-19.267,6.059-27.718,14.854l5.511-13.204  h-20.729l-16.889,38.517c-6.782,13.573-20.553,36.133-29.182,36.133c-1.832,0-2.571-1.103-2.571-2.935  c0.179-1.647,0.612-3.257,1.286-4.771c0.738-1.65,10.83-25.309,10.83-25.309l18.351-42.002h-22.384l-17.805,40.898  c-5.496,12.658-19.443,34.117-28.442,34.117c-1.567,0.153-2.964-0.992-3.117-2.563c0,0,0,0,0-0.003v-0.738  c0-2.198,1.655-6.236,2.941-9.172l9.353-20.538l19.266-42.002h-22.192l-4.418,9.537c-3.294,6.418-8.806,13.938-17.611,13.938  c-4.225,0-6.235-1.646-7.151-3.3c-1.285-14.123-10.283-21.644-23.493-21.644c-18.351,0-31.381,10.821-40.011,24.029  c-5.653,9.103-10.094,18.905-13.206,29.158c-7.893,13.026-16.146,23.116-22.754,23.116c-1.653,0-2.756-0.922-2.756-3.12  c0-2.201,2.204-7.151,2.938-8.992l14.497-30.811c4.037-9.533,6.796-15.77,6.796-22.008c0-6.604-4.58-11.376-12.116-11.376  c-10.46,0-21.84,6.057-30.83,15.957c0.305-1.571,0.427-3.173,0.366-4.771c0-7.338-3.667-11.191-11.195-11.191  c-9.539,0-19.447,5.692-28.438,15.958l5.873-14.313h-20.189l-17.062,38.528c-8.073,18.16-21.102,36.139-28.445,36.139  c-1.649,0-2.751-0.924-2.751-3.122c0-3.483,3.854-12.104,5.32-15.59l22.573-51.17c1.651-3.85-9.178-6.238-22.94-6.238  c-14.129,0-28.627,6.973-39.267,15.957c-7.523,6.233-13.029,9.354-15.787,9.354c-0.899,0.192-1.785-0.381-1.979-1.279  c-0.026-0.122-0.038-0.246-0.036-0.37c0-3.119,7.523-11.927,7.523-18.711c0-3.117-1.649-5.137-5.875-5.137  c-8.069,0-17.616,7.705-24.588,15.772l5.873-14.125h-19.815l-17.063,38.52c-8.076,18.16-21.472,37.054-28.812,37.054  c-1.653,0-2.749-0.915-2.749-3.12c0-3.484,3.67-11.917,5.687-16.324l22.572-51.353c1.651-3.85-9.177-6.238-22.942-6.238  c-20.369,0-40.189,13.756-50.647,27.88c-11.559,15.218-19.447,31.361-19.633,44.569c-0.18,10.637,5.318,17.239,16.331,17.239  c12.296,0,22.208-9.719,27.893-17.058c-0.337,1.452-0.584,2.922-0.739,4.404c0,7.332,2.937,12.653,11.927,12.653  c7.889,0,18.35-6.603,26.792-17.058l-6.798,15.592h21.467l21.105-47.872c6.989-15.587,14.88-23.654,17.074-23.654  c0.505-0.097,0.993,0.233,1.091,0.738c0.01,0.058,0.016,0.118,0.016,0.178c0,1.652-3.301,6.059-3.301,10.087  c0,4.029,2.195,7.151,8.076,7.151c4.58,0,9.721-2.202,14.31-5.14c-10.826,14.679-18.173,30.084-18.173,42.743  c-0.181,10.638,5.318,17.239,16.333,17.239c11.558,0,22.385-11.005,28.257-18.342c-0.221,1.704-0.343,3.418-0.366,5.135  c0,7.157,4.039,13.207,12.295,13.207c9.172,0,16.515-5.689,25.69-16.872l-6.796,15.406h22.016l20.183-45.672  c8.809-19.809,20.734-30.451,26.607-30.451c1.467-0.151,2.782,0.915,2.935,2.384c0,0.003,0,0.006,0.001,0.009v0.546  c-0.242,2.228-0.863,4.399-1.834,6.418l-28.967,66.948h22.571l20.554-46.59c8.803-19.989,18.533-29.715,25.872-29.715  c2.201,0,3.122,1.108,3.122,3.486c-0.196,2.554-0.882,5.047-2.019,7.345l-19.821,42.181c-1.825,4.06-2.942,8.4-3.304,12.836  c0,6.421,3.485,12.116,13.399,12.116c12.854,0,22.571-9.721,33.577-24.21v3.116c0.921,11.555,7.342,21.643,24.406,21.643  c20.184,0,36.524-13.94,46.424-36.128c3.744-7.801,6.167-16.173,7.165-24.77c2.21,1.121,4.68,1.63,7.151,1.478  c3.335,0.037,6.621-0.785,9.545-2.388l-3.486,7.517c-4.049,8.439-8.452,17.794-11.924,25.686c-2.199,4.666-3.508,9.702-3.855,14.85  c0,7.884,4.402,13.575,13.386,13.575s21.291-8.438,30.098-20.359h0.191c-0.59,2.465-0.901,4.985-0.931,7.518  c0,6.605,2.024,12.842,11.199,12.842c10.653,0,18.898-7.705,26.979-17.428l-6.796,15.409h22.206l17.806-40.351  c10.092-22.743,20.183-36.496,29.534-36.496c1.607-0.057,2.981,1.148,3.133,2.75v0.542c0,3.855-5.511,14.31-10.461,24.763  c-4.595,9.538-8.082,16.871-10.461,22.563c-2.208,4.794-3.514,9.952-3.855,15.219c0,6.966,3.855,12.287,12.485,12.287  c12.839,0,25.871-12.472,32.83-21.828c-1.57,4.485-2.433,9.186-2.557,13.936c0,12.845,7.697,19.263,18.527,19.263  c7.196-0.055,14.191-2.363,20.006-6.6c8.437-5.872,15.234-14.674,20.922-22.744l-3.855-3.672  c-5.319,7.522-11.199,14.677-17.258,19.079c-3.193,2.699-7.199,4.249-11.378,4.402c-4.579,0-7.52-2.387-7.52-8.251  c0-5.863,2.748-13.759,6.975-24.399c0.176-0.179,6.234-13.755,11.923-26.773c4.772-11.013,9.544-21.646,10.461-23.847h14.495  l2.938-6.604h-14.315L690.057,363.75z M64.122,469.581c-3.118,0-5.32-1.1-5.32-5.135c0.182-10.823,9.171-30.08,20.372-45.489  c7.888-10.638,18.163-18.521,29.174-18.521L94.4,431.61C83.94,455.091,72.563,469.581,64.122,469.581z M201.383,469.581  c-3.117,0-5.319-1.1-5.5-5.135c0.182-10.823,9.172-30.08,20.369-45.489c7.886-10.638,18.165-18.521,29.175-18.521l-13.95,31.175  c-10.64,24.034-21.466,37.971-30.097,37.971H201.383z M445.071,408.875c-0.547,11.918-11.008,40.71-23.301,57.958  c-4.949,6.968-9.176,8.983-12.839,8.983c-5.143,0-6.62-4.221-5.882-10.454c1.094-10.82,10.092-36.131,22.577-53.556  c5.688-7.887,9.545-11.189,13.947-11.189C443.977,400.618,445.262,404.288,445.071,408.875z M787.559,394.747l20.212-46.649h-23.92  l-20.213,46.649h-50.841l-8.481,19.563h50.856l-20.212,46.649h23.92l20.214-46.649h50.84l8.467-19.563H787.559z"/>
</svg>