<svg version="1.0" xmlns="http://www.w3.org/2000/svg" width="400.000000pt" height="400.000000pt"
    viewBox="0 0 400.000000 400.000000" preserveAspectRatio="xMidYMid meet">
    <path fill="#00aeef" opacity="1.000000" stroke="none"
        d="M 275.0294 243.4356 C 274.3397 244.2568 273.6259 244.9341 272.9175 244.9284 L 243 245 L 242.9465 9.8708 C 254.3321 8.8957 265.3874 7.7025 276.4747 7.0681 C 287.7175 6.4247 299.0088 5.7774 310.2487 6.1206 C 330.9449 6.7526 350.7758 10.9809 367.4891 24.2417 C 378.4122 32.9083 385.3901 44.6223 387.7164 58.1029 C 390.8787 76.4285 390.3496 94.8125 381.5193 111.9574 C 373.4697 127.5861 360.3196 137.3519 344.451 144.0242 C 325.1239 152.1507 304.7986 152.5188 284.3556 151.9362 C 281.3238 151.8499 278.3146 150.9702 275.0077 150.4088 L 275.0294 243.4356 M 294.7357 126.9985 C 303.673 125.9915 312.7441 125.6284 321.5117 123.8052 C 331.2186 121.7866 340.2046 117.1929 346.6404 109.5207 C 357.0115 97.1572 359.8933 82.578 357.0175 66.7648 C 354.3304 51.9896 345.6586 41.6354 332.1428 36.2466 C 313.652 28.8743 294.3869 29.9139 275.0009 33.4176 C 275.0009 62.8985 275.0198 92.0201 274.9698 121.1416 C 274.9651 123.8664 275.9362 124.8778 278.7336 125.0851 C 283.7738 125.4584 288.7773 126.3271 294.7357 126.9985 z" />
    <g transform="translate(0.000000,400.000000) scale(0.100000,-0.100000)" fill="#e60010" stroke="none">
        <path d="M110 2745 l0 -1185 151 0 152 0 -7 878 c-3 482 -9 927 -12 987 l-5
110 94 -180 c121 -234 197 -359 685 -1142 l407 -653 158 0 157 0 0 1185 0
1185 -145 0 -145 0 0 -742 c0 -657 8 -1012 25 -1158 5 -39 -9 -17 -98 155
-140 271 -199 370 -666 1108 l-404 637 -173 0 -174 0 0 -1185z" />
        <path
            d="M 1657 673 c -4 -3 -7 -138 -7 -300 c 0 -280 1 -293 19 -293 c 10 0 113 56 227 124 l 209 124 l 5 -121 c 4 -101 8 -122 21 -125 c 9 -2 110 54 225 123 l 209 125 l 5 -127 l 5 -128 l 30 0 l 30 0 l 3 303 l 2 302 l -35 0 l -35 0 l 0 -126 c 0 -69 -4 -124 -9 -122 c -4 2 -101 59 -214 127 c -121 72 -213 121 -221 118 c -12 -5 -16 -31 -18 -127 l -3 -120 l -210 125 c -115 68 -215 125 -221 125 c -6 0 -14 -3 -17 -7 z" />
    </g>
    <path fill="#00aeef" opacity="1.000000" stroke="none"
        d="
m 11.8388 262.8651 C 11.9692 262.7759 12.1605 262.8636 12.221 262.8187 C 14.2338 261.3276 15.3559 261.1956 17.6648 262.2775 C 20.1156 263.4259 22.5332 264.6268 24.9838 265.7753 C 49.1113 277.0839 74.3881 285.9369 100.8013 292.3599 C 114.2727 295.6358 127.9155 298.2512 141.7319 300.1578 C 165.7414 303.471 189.8968 304.8696 214.1991 303.9312 C 257.4934 302.2595 299.1651 294.2471 339.1611 279.7676 C 341.1197 279.0586 343.0938 278.6556 345.1853 279.2451 C 348.7411 280.2475 349.9936 283.4603 347.7444 286.0386 C 347.0069 286.8842 346.0141 287.6022 345.0141 288.2309 C 328.485 298.6238 310.3804 306.4123 291.2467 312.4706 C 273.4611 318.102 255.2011 322.1797 236.4523 324.4855 C 228.3676 325.4797 220.2102 326.0309 212.0875 326.7948 C 211.6792 326.8333 211.2849 326.9819 210.9802 327.1646 C 200.6753 327.25 190.2743 327.25 179.8313 327.1638 C 179.2901 326.9807 178.7959 326.8321 178.2907 326.7952 C 174.2175 326.4972 170.1322 326.3001 166.0692 325.9228 C 149.1127 324.3486 132.4563 321.4509 116.1446 317.1403 C 83.2823 308.4563 53.3265 294.9329 26.4333 276.4061 C 21.518 273.0198 16.9528 269.2524 12.2157 265.6711 C 12.1594 265.6286 11.9674 265.7207 11.8388 265.75 C 11.8388 264.8268 11.8388 263.9035 11.8388 262.8651 z" />
    <path fill="#00aeef" opacity="1.000000" stroke="none"
        d="
M 382 269 C 381.248 272.745 380.9335 272.9729 380.8841 273.2377 C 379.1968 282.2778 375.8374 290.8205 370.6561 298.8042 C 367.1674 304.1801 362.8876 309.032 357.3801 312.9962 C 356.5513 313.5928 355.5506 314.1069 354.5297 314.3851 C 352.7581 314.8679 351.4458 313.8074 351.7375 312.2194 C 351.8563 311.5727 352.1714 310.9467 352.4502 310.3292 C 356.3312 301.7313 360.2867 293.1549 362.8017 284.1534 C 363.6849 280.9919 364.371 277.809 364.1562 274.521 C 363.9945 272.0477 362.7321 270.1823 359.9685 269.5507 C 356.8767 268.844 353.6917 268.2429 350.5122 268.0638 C 341.4584 267.5538 332.4412 268.2765 323.4437 269.1283 C 320.8627 269.3727 318.2855 269.6472 315.7037 269.886 C 314.4668 270.0003 313.156 269.9756 312.5464 268.874 C 311.9188 267.7395 312.5535 266.6229 313.607 266.0034 C 316.3006 264.4192 318.9971 262.7683 321.9224 261.5619 C 334.4734 256.3861 347.8263 254.9767 361.5618 255.6505 C 366.3722 255.8865 371.1481 256.4065 375.7241 257.782 C 377.1535 258.2116 378.5556 258.8412 379.7751 259.611 C 380.4794 260.0556 380.7944 260.9627 381.3616 261.5809 C 382 264 382 265 382 268 z" />
</svg>