<svg viewBox="1.4 1.2000000000000028 612 114.8" xmlns="http://www.w3.org/2000/svg" width="2500" height="465"><g fill="#f47521"><path d="M601.3 90.5V21.7h12.1v68.9h-12.1zM575.2 90.5V21.7h12.1v68.9h-12.1zM565 65.7c0 16.6-8.3 25.5-23.6 25.5s-23.6-8.9-23.6-25.5 8.3-25.5 23.6-25.5S565 49.1 565 65.7zm-11.5 0c0-13.4-4.5-15.9-11.5-15.9s-11.5 2.5-11.5 15.9S535 81.6 542 81.6c6.4 0 11.5-2.5 11.5-15.9zM512.7 40.2v10.2c-6.4 0-14 0-14 3.2v37h-12.1v-44c.6-7.7 26.1-6.4 26.1-6.4zM440 110.3c9-22.3 8.3-20.4 9-22.3l-17.9-47.2h12.8l11.5 34.4 10.8-34.4H479l-19.1 51-7 18.5zM424.1 60.6v30H412V59.9c0-4.5-1.3-8.9-12.1-8.9-2.8.1-5.6.5-8.3 1.3v38.3h-12.1V21.7h12.1v19.8c3.2-1.4 6.7-2 10.2-1.9 14.6.6 22.3 8.2 22.3 21zM357.2 81c4.4-.2 8.7-1 12.8-2.6v10.2c-4.7 1.9-9.6 2.7-14.7 2.5-15.3 0-23.6-8.9-23.6-25.5s8.3-26.1 23.6-26.1c5 .2 9.9 1 14.7 2.6v10.2c-4.1-1.6-8.4-2.4-12.8-2.5-8.3 0-13.4 2.5-13.4 15.3 0 13.3 5.1 15.9 13.4 15.9zM324 59.3v31.2h-11.5V59.3c0-4.5 0-8.9-10.2-8.9-3.2 0-9.6.6-9.6 2.5v37.6h-11.5V49.1c0-8.3 10.2-9.6 22.9-9.6 12.9.7 19.9 5.8 19.9 19.8zM269.8 40.8v27.4c0 14.7-5.1 23.6-22.3 23.6s-21.7-8.9-21.7-23.6V40.8h11.5v28.7c0 8.3 3.2 10.8 10.2 10.8s10.2-2.5 10.2-10.8V40.8zM216.3 40.2v10.2c-6.4 0-14 0-14 3.2v37h-12.1v-44c.6-7.7 26.1-6.4 26.1-6.4zM166.5 81c4.2-.1 8.3-1 12.1-2.6v10.2c-4.7 1.9-9.6 2.7-14.7 2.5-15.3 0-23.6-8.9-23.6-25.5s8.3-26.1 23.6-26.1c5 .2 9.9 1 14.7 2.6v10.2c-3.9-1.5-8-2.4-12.1-2.5-8.3 0-13.4 2.5-13.4 15.3-.6 13.3 5.2 15.9 13.4 15.9zM15.5 65.7c0-27.9 22.6-50.4 50.5-50.4 26.3.1 48.1 20.3 50.2 46.5v-3.2c0-31.7-25.7-57.4-57.4-57.4S1.4 27 1.4 58.7 27.1 116 58.8 116h3.8c-26.4-1.8-47-23.8-47.1-50.3z"/><path d="M93.2 68.2C83 68.2 74.8 60 74.7 49.9c0-7.8 4.8-14.7 12.1-17.4-5.7-3-12-4.6-18.5-4.5-22.2 0-40.2 18-40.2 40.2s18 40.2 40.2 40.2 40.2-18 40.2-40.2c.1-2.6-.1-5.1-.6-7.7-3.1 5.1-8.8 8-14.7 7.7z"/></g></svg>