<?xml version="1.0" encoding="UTF-8" standalone="no"?>
<!-- Created with Inkscape (http://www.inkscape.org/) -->

<svg
   width="1000"
   height="288.74332"
   viewBox="0 0 264.58334 76.396673"
   version="1.1"
   id="svg9357"
   inkscape:version="1.1.1 (3bf5ae0d25, 2021-09-20)"
   sodipodi:docname="Disney+_Hotstar.svg"
   xmlns:inkscape="http://www.inkscape.org/namespaces/inkscape"
   xmlns:sodipodi="http://sodipodi.sourceforge.net/DTD/sodipodi-0.dtd"
   xmlns="http://www.w3.org/2000/svg"
   xmlns:svg="http://www.w3.org/2000/svg"
   xmlns:rdf="http://www.w3.org/1999/02/22-rdf-syntax-ns#"
   xmlns:cc="http://creativecommons.org/ns#"
   xmlns:dc="http://purl.org/dc/elements/1.1/">
  <defs
     id="defs9351">
    <linearGradient
       y2="84.295403"
       x2="189.4962"
       y1="184.4834"
       x1="930.50293"
       gradientUnits="userSpaceOnUse"
       id="SVGID_1_"
       gradientTransform="matrix(0.14082612,0,0,0.14082612,-193.49084,46.079219)">
      <stop
         id="stop4543"
         style="stop-color:#00147a;stop-opacity:1"
         offset="0" />
      <stop
         id="stop4545"
         style="stop-color:#0910fe;stop-opacity:1"
         offset="0.12186917" />
      <stop
         id="stop4547"
         style="stop-color:#86c4ff;stop-opacity:1"
         offset="0.40826541" />
      <stop
         id="stop4549"
         style="stop-color:#c6f5fb;stop-opacity:1"
         offset="0.65490001" />
      <stop
         id="stop4551"
         style="stop-color:#ffffff;stop-opacity:1"
         offset="1" />
    </linearGradient>
    <clipPath
       clipPathUnits="userSpaceOnUse"
       id="clipPath3112">
      <path
         d="M 0,0 H 1920 V 1080 H 0 Z"
         id="path3110" />
    </clipPath>
    <clipPath
       clipPathUnits="userSpaceOnUse"
       id="clipPath3124">
      <path
         d="m 1241.53,411.064 c -19.46,-0.002 -37.52,-9.671 -48.3,-25.869 v 0 c -0.12,-0.176 -0.15,-0.394 -0.08,-0.596 v 0 c 0.07,-0.205 0.23,-0.362 0.43,-0.431 v 0 l 1.51,-0.51 c 0.09,-0.027 0.18,-0.042 0.27,-0.042 v 0 c 0.28,0 0.54,0.139 0.7,0.37 v 0 c 4.94,7.268 11.64,13.319 19.36,17.5 v 0 c 7.96,4.316 17,6.598 26.11,6.6 v 0 h 0.01 c 11.01,0 21.63,-3.246 30.72,-9.389 v 0 c 8.87,-5.994 15.76,-14.354 19.92,-24.18 v 0 c 0.13,-0.293 0.41,-0.482 0.73,-0.482 v 0 h 1.8 c 0.21,0 0.41,0.103 0.53,0.278 v 0 c 0.11,0.173 0.13,0.393 0.06,0.587 v 0 c -4.3,10.566 -11.55,19.573 -21,26.043 v 0 c -9.66,6.621 -20.99,10.121 -32.76,10.121 v 0 z"
         id="path3122" />
    </clipPath>
    <radialGradient
       id="radial-gradient"
       gradientUnits="userSpaceOnUse"
       cx="942.52399"
       cy="279.896"
       r="760.12402"
       fx="942.52399"
       fy="279.896"
       gradientTransform="matrix(0.13535408,0,0,0.13535408,-193.5542,47.32222)">
      <stop
         offset="0.007"
         stop-color="#021192"
         stop-opacity="1"
         id="stop847" />
      <stop
         offset="0.03"
         stop-color="#021096"
         stop-opacity="1"
         id="stop849" />
      <stop
         offset="0.057"
         stop-color="#010cb4"
         stop-opacity="1"
         id="stop851" />
      <stop
         offset="0.084"
         stop-color="#0008ce"
         stop-opacity="1"
         id="stop853" />
      <stop
         offset="0.111"
         stop-color="#0006d7"
         stop-opacity="1"
         id="stop855" />
      <stop
         offset="0.138"
         stop-color="#0004e1"
         stop-opacity="1"
         id="stop857" />
      <stop
         offset="0.165"
         stop-color="#0001fa"
         stop-opacity="1"
         id="stop859" />
      <stop
         offset="0.191"
         stop-color="#0000fe"
         stop-opacity="1"
         id="stop861" />
      <stop
         offset="0.216"
         stop-color="#0f1eff"
         stop-opacity="1"
         id="stop863" />
      <stop
         offset="1"
         stop-color="#00ffff"
         stop-opacity="0"
         id="stop865" />
    </radialGradient>
    <defs
       id="defs868">
      <radialGradient
         id="radialGradient944"
         gradientUnits="userSpaceOnUse"
         cx="942.52399"
         cy="279.896"
         r="760.12402"
         fx="942.52399"
         fy="279.896">
        <stop
           offset="0.007"
           stop-color="#021192"
           stop-opacity="1"
           id="stop924" />
        <stop
           offset="0.03"
           stop-color="#021096"
           stop-opacity="1"
           id="stop926" />
        <stop
           offset="0.057"
           stop-color="#010cb4"
           stop-opacity="1"
           id="stop928" />
        <stop
           offset="0.084"
           stop-color="#0008ce"
           stop-opacity="1"
           id="stop930" />
        <stop
           offset="0.111"
           stop-color="#0006d7"
           stop-opacity="1"
           id="stop932" />
        <stop
           offset="0.138"
           stop-color="#0004e1"
           stop-opacity="1"
           id="stop934" />
        <stop
           offset="0.165"
           stop-color="#0001fa"
           stop-opacity="1"
           id="stop936" />
        <stop
           offset="0.191"
           stop-color="#0000fe"
           stop-opacity="1"
           id="stop938" />
        <stop
           offset="0.216"
           stop-color="#0f1eff"
           stop-opacity="1"
           id="stop940" />
        <stop
           offset="1"
           stop-color="#00ffff"
           stop-opacity="0"
           id="stop942" />
      </radialGradient>
    </defs>
  </defs>
  <sodipodi:namedview
     id="base"
     pagecolor="#ffffff"
     bordercolor="#666666"
     borderopacity="1.0"
     inkscape:pageopacity="0.0"
     inkscape:pageshadow="2"
     inkscape:zoom="0.5"
     inkscape:cx="577"
     inkscape:cy="185"
     inkscape:document-units="px"
     inkscape:current-layer="layer1"
     showgrid="false"
     units="px"
     inkscape:window-width="1366"
     inkscape:window-height="705"
     inkscape:window-x="-8"
     inkscape:window-y="-8"
     inkscape:window-maximized="1"
     inkscape:pagecheckerboard="0" />
  <metadata
     id="metadata9354">
    <rdf:RDF>
      <cc:Work
         rdf:about="">
        <dc:format>image/svg+xml</dc:format>
        <dc:type
           rdf:resource="http://purl.org/dc/dcmitype/StillImage" />
        <dc:title />
      </cc:Work>
    </rdf:RDF>
  </metadata>
  <g
     inkscape:label="Layer 1"
     inkscape:groupmode="layer"
     id="layer1"
     transform="translate(193.49127,-47.362826)">
    <g
       id="g3483">
      <path
         style="fill:#01147c;fill-opacity:1;stroke-width:1.68031"
         d="m 47.130836,89.468678 c 2.886777,0 5.311463,1.07036 6.845582,3.316938 h 0.0706 v -2.78092 h 3.708435 v 19.753724 h -3.708435 v -3.06656 h -0.0706 c -1.391299,2.35243 -3.888225,3.56561 -6.704432,3.56561 -5.775223,0 -10.481776,-4.35032 -10.481776,-10.05498 0,-6.311236 4.528433,-10.733812 10.340626,-10.733812 z m -58.958705,0 c 5.4542827,0 10.5893061,4.279746 10.5187363,10.555702 -0.0722,5.38036 -4.6662141,10.42633 -11.1757353,10.22637 -5.519823,-0.16803 -10.211248,-4.91154 -10.147398,-10.433043 0.0706,-5.956703 4.788885,-10.349029 10.804397,-10.349029 z m 29.880942,0 c 3.281656,0 5.955023,2.283539 6.062562,5.776905 H 20.4072 c -0.178119,-1.424899 -0.998109,-2.387717 -2.532237,-2.387717 -1.426577,0 -2.317147,0.962818 -2.317147,2.102067 0,1.676948 1.713918,2.175998 3.673155,2.782586 2.780917,0.85528 5.348434,2.530541 5.348434,6.203711 0,3.81431 -2.782596,6.31124 -6.632182,6.31124 -3.565615,0 -6.990091,-2.42468 -6.990091,-6.99009 h 3.710126 c 0.178109,2.39108 1.389608,3.60259 3.350535,3.60259 1.712228,0 2.853166,-1.10564 2.853166,-2.71034 0,-1.35434 -1.033388,-2.2449 -3.352215,-2.99432 -4.849384,-1.534123 -5.669363,-3.637861 -5.669363,-5.884437 0,-3.495046 2.959016,-5.812195 6.203692,-5.812195 z M -43.58573,83.372517 c 2.048298,0 3.708446,1.660143 3.708446,3.70844 v 5.027489 h 0.0722 c 1.176219,-1.747522 3.066566,-2.638085 5.526543,-2.638085 4.706544,0 8.23688,2.994305 8.23688,8.414988 v 11.873071 h -3.708446 V 99.026278 c 0,-4.242785 -1.639978,-6.168412 -4.919943,-6.168412 -3.246367,0 -5.207284,2.352427 -5.207284,6.203702 v 10.696852 h -3.708446 z m 50.1925373,0 v 6.632179 h 3.2463659 v 3.387509 H 6.6051273 v 16.366215 c -2.0466174,0 -3.7084453,-1.66014 -3.7084453,-3.70844 V 93.392205 H 1.3659239 V 90.004696 H 2.896682 v -6.632179 h 3.7084453 z m 25.7591477,0 v 6.632179 h 3.246355 v 3.387509 h -3.244675 v 16.366215 c -2.048298,0 -3.708445,-1.66014 -3.708445,-3.70844 V 93.392205 h -1.532438 v -3.387509 h 1.532438 v -6.632179 h 3.708445 z m 38.726102,6.097844 v 3.814304 c -3.209397,0.10754 -4.849375,2.066778 -4.849375,5.385383 v 7.379932 c 0,2.0483 -1.660148,3.70844 -3.708445,3.70844 V 90.004696 h 3.459755 v 1.781131 h 0.0706 c 0.89056,-1.317366 2.424687,-2.172643 5.027485,-2.315466 z m -83.098036,3.387505 c -4.252865,0 -7.85041,4.125165 -6.702762,8.722484 0.77967,3.11698 3.621066,5.37532 6.833822,5.28794 3.7924548,-0.10586 6.855661,-3.13546 6.855661,-7.057303 0,-3.852956 -3.1018461,-6.953121 -6.986721,-6.953121 z m 59.242685,0 c -3.915135,0 -7.074111,3.535365 -6.711161,7.712614 0.30077,3.44464 3.115286,6.22892 6.570011,6.29781 3.918475,0.079 7.023692,-3.16234 7.023692,-6.951443 0,-3.851276 -2.782597,-7.058981 -6.882542,-7.058981 z"
         id="path2"
         inkscape:connector-curvature="0" />
      <path
         id="Path"
         d="m -93.960668,96.821207 c -1.949099,0.446669 -7.079022,0.703841 -7.079022,0.703841 l -0.6497,2.030311 c 0,0 2.558196,-0.216566 4.426083,-0.02707 0,0 0.609093,-0.06768 0.67677,0.690301 0.02707,0.70385 -0.05414,1.46183 -0.05414,1.46183 0,0 -0.04061,0.4602 -0.690306,0.56849 -0.703841,0.12181 -5.522447,0.29777 -5.522447,0.29777 l -0.78505,2.63941 c 0,0 -0.28425,0.60909 0.36545,0.43313 0.60909,-0.16242 5.657804,-1.1099 6.321039,-0.97455 0.703841,0.17596 1.488895,1.10991 1.258793,1.97617 -0.270708,1.05576 -5.305882,4.27719 -8.378422,4.04709 0,0 -1.61071,0.10828 -2.97779,-2.07092 -1.27233,-2.07092 0.48728,-6.00972 0.48728,-6.00972 0,0 -0.79859,-1.84081 -0.21657,-2.44991 0,0 0.35192,-0.311312 1.35354,-0.392525 l 1.23172,-2.558192 c 0,0 -1.40768,0.09475 -2.24687,-0.933943 -0.78506,-0.988085 -0.8392,-1.434753 -0.24364,-1.705461 0.63616,-0.311315 6.49699,-1.380612 10.530548,-1.245258 0,0 1.407682,-0.135354 2.612334,2.301019 -0.01354,0 0.582022,0.988085 -0.419598,1.218187 z m -15.173192,9.826703 c -0.51435,1.21819 -1.88142,2.51759 -3.57335,1.70546 -1.67839,-0.81212 -4.34486,-6.26689 -4.34486,-6.26689 0,0 -1.01516,-2.03031 -1.20466,-1.9897 0,0 -0.21656,-0.392531 -0.35192,1.82728 -0.13535,2.2198 0.0271,6.5376 -0.85273,7.21437 -0.83919,0.67677 -1.85435,0.40606 -2.38223,-0.39253 -0.47374,-0.78505 -0.67677,-2.65294 -0.4196,-5.92851 0.31132,-3.275566 1.0693,-6.767701 2.04385,-7.864069 0.97455,-1.082833 1.7596,-0.297779 2.05738,-0.01354 0,0 1.2994,1.177581 3.45153,4.642645 l 0.37899,0.636164 c 0,0 1.9491,3.27557 2.15213,3.26204 0,0 0.16243,0.14889 0.29778,0.0406 0.20303,-0.0541 0.12182,-1.1099 0.12182,-1.1099 0,0 -0.40606,-3.559816 -2.1792,-9.596608 0,0 -0.27071,-0.757983 -0.0812,-1.461824 0.17596,-0.717376 0.89333,-0.378991 0.89333,-0.378991 0,0 2.76123,1.380611 4.0877,5.874367 1.31293,4.534366 0.4196,8.581456 -0.0948,9.799636 z m -13.56248,-11.5457 c -0.2301,0.460204 -0.36546,1.123439 -1.5295,1.299399 0,0 -11.13964,0.757983 -11.66752,1.543037 0,0 -0.39253,0.460204 0.21656,0.595558 0.6091,0.121819 3.12668,0.460204 4.34487,0.527881 1.2994,0.01354 5.68487,0.05414 7.25498,2.016775 0,0 0.93394,0.93394 0.89334,3.04547 -0.0406,2.16566 -0.4196,2.92365 -1.2588,3.7087 -0.8798,0.73091 -8.43256,4.11476 -13.3053,-1.08283 0,0 -2.24688,-2.50405 0.77152,-4.39901 0,0 2.1792,-1.31294 7.71518,0.2301 0,0 1.67839,0.60909 1.59718,1.21819 -0.0947,0.6497 -1.38062,1.34 -3.2485,1.2994 -1.81375,-0.0541 -3.14022,-0.92041 -2.88304,-0.78506 0.24363,0.0947 -1.9491,-1.05576 -2.62587,-0.27071 -0.67677,0.71738 -0.51435,1.16405 0.14889,1.61072 1.69192,0.96101 8.22952,0.62263 10.17862,-1.54304 0,0 0.77152,-0.8798 -0.40606,-1.59718 -1.17758,-0.67677 -4.5479,-1.08283 -5.86083,-1.15051 -1.25879,-0.0677 -5.94204,0.0135 -6.61881,-1.23172 0,0 -0.67678,-0.839193 0.0677,-3.221425 0.78506,-2.490515 6.23983,-3.451529 8.59499,-3.668096 0,0 6.48346,-0.230102 7.67457,1.096368 -0.0135,0 0.14889,0.311315 -0.0541,0.757983 z m -18.40815,14.60471 c -0.78506,0.58202 -2.44991,0.32485 -2.92365,-0.32485 -0.47374,-0.58203 -0.63617,-2.89658 -0.54142,-6.52407 0.0948,-3.668097 0.17596,-8.215994 0.96102,-8.93337 0.83919,-0.730912 1.35354,-0.09475 1.67839,0.406062 0.35192,0.487275 0.77151,1.028691 0.86626,2.179201 0.0812,1.150509 0.35192,7.187297 0.35192,7.187297 0,0 0.35192,5.44124 -0.39252,6.00973 z m 1.69192,-19.463921 c -2.28748,0.757983 -3.85759,0.50081 -5.18406,-0.06768 -0.58202,1.015155 -0.92041,1.32647 -1.36708,1.394147 -0.6497,0.06768 -1.23172,-0.97455 -1.34,-1.312935 -0.10828,-0.257173 -0.4196,-0.690306 -0.0406,-1.718997 -1.2994,-1.164045 -1.39414,-2.734152 -1.17758,-3.789914 0.32485,-1.218187 2.51759,-5.847296 9.19054,-6.388712 0,0 3.26204,-0.243638 3.81699,1.50243 h 0.0948 c 0,0 3.16728,0.01354 3.09961,2.8289 -0.0406,2.8289 -3.51921,6.348106 -7.09256,7.552758 z m -6.22629,-6.266894 c -0.67677,1.082833 -0.70384,1.732532 -0.39252,2.179201 0.77152,-1.177581 2.1792,-3.031932 4.25012,-4.439614 -1.59718,0.135354 -2.93719,0.82566 -3.8576,2.260413 z m 9.21762,-1.813745 c -2.09799,0.311315 -5.34649,3.126679 -6.88953,5.427699 2.3687,0.433133 6.55114,0.270708 8.40549,-3.505671 -0.0135,0 0.8798,-2.341625 -1.51596,-1.922028 z m 56.956994,21.80554 c -1.258793,2.19274 -4.791534,6.76771 -9.501856,5.69841 -1.556572,3.77638 -2.855971,7.57983 -3.600419,13.29177 0,0 -0.162425,1.1099 -1.082833,0.71738 -0.906872,-0.32485 -2.422838,-1.84082 -2.720617,-3.93881 -0.324849,-2.76122 0.906873,-7.43094 3.410923,-12.77742 -0.730912,-1.19112 -1.231722,-2.89658 -0.798589,-5.31942 0,0 0.636164,-4.493753 5.143455,-8.554376 0,0 0.541417,-0.473739 0.852731,-0.324849 0.351921,0.148889 0.189496,1.610713 -0.09475,2.314554 -0.284243,0.703842 -2.301019,4.195977 -2.301019,4.195977 0,0 -1.258793,2.355164 -0.906873,4.209514 2.368697,-3.641027 7.755789,-10.990754 11.099035,-8.676199 1.123439,0.798589 1.637784,2.544657 1.637784,4.426079 -0.01354,1.66485 -0.406062,3.42446 -1.136974,4.73739 z m -0.974549,-5.766081 c 0,0 -0.189496,-1.448289 -1.597178,0.148889 -1.218187,1.340006 -3.410923,3.871122 -5.184062,7.295582 1.854351,-0.20303 3.641025,-1.21818 4.182441,-1.73253 0.879802,-0.78505 2.923648,-2.89658 2.598799,-5.711941 z m -65.714405,1.840811 c -0.25717,3.27557 -1.51597,8.78448 -10.4358,11.5051 -5.8879,1.77314 -11.45096,0.92041 -14.48289,0.14889 -0.0677,1.20465 -0.20303,1.719 -0.39252,1.92203 -0.25718,0.25717 -2.1792,1.36707 -3.23497,-0.20303 -0.47374,-0.74445 -0.71737,-2.09799 -0.85273,-3.30264 -6.82184,-3.14022 -9.96206,-7.66104 -10.08388,-7.86407 -0.14889,-0.14889 -1.70546,-1.77314 -0.14889,-3.762848 1.46183,-1.800209 6.23983,-3.600418 10.54409,-4.33133 0.14889,-3.681631 0.58202,-6.45639 1.09637,-7.728718 0.62262,-1.47536 1.40768,-0.14889 2.08445,0.85273 0.56849,0.744448 0.90687,3.95234 0.93394,6.510532 2.81537,-0.135354 4.48022,0.06768 7.62044,0.636164 4.08769,0.744447 6.82184,2.8289 6.5782,5.197597 -0.17596,2.328093 -2.31455,3.289103 -3.12668,3.356783 -0.85273,0.0677 -2.1792,-0.54142 -2.1792,-0.54142 -0.90687,-0.43313 -0.0677,-0.81212 1.0287,-1.28586 1.19111,-0.58202 0.9204,-1.177583 0.9204,-1.177583 -0.44667,-1.299399 -5.75255,-2.206271 -11.03135,-2.206271 -0.0271,2.910114 0.12181,7.742254 0.18949,10.557614 3.69517,0.70385 6.45639,0.56849 6.45639,0.56849 0,0 13.48127,-0.37899 13.88733,-8.98751 0.4196,-8.622055 -13.44066,-16.892189 -23.68696,-19.518058 -10.23277,-2.680011 -16.02593,-0.812125 -16.52674,-0.554952 -0.54141,0.270708 -0.0406,0.351921 -0.0406,0.351921 0,0 0.55495,0.08121 1.51596,0.406062 1.01516,0.32485 0.2301,0.852731 0.2301,0.852731 -1.74606,0.554951 -3.7087,0.203031 -4.08769,-0.595558 -0.37899,-0.798589 0.25717,-1.515966 0.98809,-2.544657 0.73091,-1.082833 1.5295,-1.042227 1.5295,-1.042227 12.6556,-4.385472 28.07243,3.546277 28.07243,3.546277 14.44228,7.322656 16.90573,15.904105 16.63502,19.233811 z m -38.19692,-0.446664 c -1.43476,0.703844 -0.44667,1.718994 -0.44667,1.718994 2.69355,2.89658 6.00972,4.71032 9.16347,5.83376 0.36546,-4.99456 0.31131,-6.75417 0.35192,-9.271751 -4.92689,0.338385 -7.76932,1.123439 -9.06872,1.718997 z"
         fill="#01147c"
         fill-opacity="1"
         stroke="none"
         style="stroke-width:0.135354;fill:#01147c;fill-opacity:1" />
      <path
         id="Path-1"
         d="m -52.664138,98.567275 v 1.786675 c 0,0.39253 -0.311315,0.70384 -0.703841,0.70384 h -8.513772 c 0,0.44667 0.01354,0.8392 0.01354,1.20465 0,2.63941 -0.108283,4.79154 -0.365456,7.21437 -0.04061,0.36546 -0.338385,0.63617 -0.690305,0.63617 h -1.840816 c -0.189496,0 -0.365456,-0.0812 -0.487275,-0.21657 -0.121818,-0.13535 -0.189495,-0.32485 -0.162424,-0.51434 0.257172,-2.40931 0.378991,-4.53437 0.378991,-7.11963 0,-0.37899 0,-0.77152 -0.01354,-1.20465 h -8.419024 c -0.392527,0 -0.703841,-0.31131 -0.703841,-0.70384 v -1.786675 c 0,-0.392527 0.311314,-0.703842 0.703841,-0.703842 h 8.297205 c -0.17596,-2.910112 -0.527881,-5.711942 -1.096368,-8.554377 -0.02707,-0.175961 0.01354,-0.351921 0.121819,-0.487275 0.108283,-0.135354 0.270708,-0.216567 0.446668,-0.216567 h 1.989705 c 0.311314,0 0.568487,0.216567 0.636164,0.527881 0.554952,2.937184 0.906872,5.793155 1.082833,8.730338 h 8.622055 c 0.378991,0 0.703841,0.32485 0.703841,0.703842 z"
         fill="#01147c"
         fill-opacity="1"
         stroke="none"
         style="stroke-width:0.135354;fill:#01147c;fill-opacity:1" />
      <path
         id="Path-3"
         d="M -64.250447,84.395703 C -68.649455,73.580912 -76.080394,64.363299 -85.744675,57.730949 -95.639059,50.949709 -107.2389,47.362826 -119.28542,47.362826 c -19.92412,0 -38.41348,9.894383 -49.44484,26.475258 -0.12182,0.175961 -0.14889,0.406063 -0.0812,0.609094 0.0677,0.216566 0.2301,0.365456 0.43313,0.433133 l 1.54304,0.527881 c 0.0947,0.02707 0.18949,0.04061 0.2707,0.04061 0.28425,0 0.55496,-0.14889 0.71738,-0.378992 5.06224,-7.444474 11.91116,-13.630155 19.81584,-17.907344 8.16185,-4.412543 17.40653,-6.754169 26.73243,-6.754169 11.27499,0 22.143926,3.32971 31.456286,9.61014 9.082259,6.13154 16.134207,14.699453 20.39786,24.756261 0.121819,0.297779 0.419598,0.50081 0.744448,0.50081 h 1.840815 c 0.216567,0 0.419598,-0.108283 0.527881,-0.284244 0.135354,-0.17596 0.162425,-0.392526 0.08121,-0.595557 z M -166.5646,74.988594 c -0.0406,0 -0.0812,-0.01354 -0.12182,-0.02707 0.0406,0.01354 0.0812,0.02707 0.12182,0.02707 h 0.0271 c 0,0 -0.0135,0 -0.0271,0 z m 99.485252,10.043273 c 0.04061,0.02707 0.08121,0.05414 0.121819,0.06768 -0.04061,-0.02707 -0.08121,-0.04061 -0.121819,-0.06768 z"
         fill-opacity="1"
         fill="url(#radial-gradient)"
         stroke="none"
         style="fill:url(#radial-gradient);stroke-width:0.135354" />
    </g>
  </g>
</svg>
