<svg version="1" xmlns="http://www.w3.org/2000/svg" width="400pt" height="400pt" viewBox="0 0 400 400">
    <path fill="#e60010"
        d="M 192.5 372.8 c -0.3 -0.2 -0.5 -8.5 -0.5 -18.4 c 0 -17.1 0.1 -17.9 1.2 -17.9 c 0.7 0 7.5 3.4 15 7.6 l 13.8 7.6 l 0.3 -7.4 c 0.3 -6.2 0.5 -7.5 1.4 -7.6 c 0.6 -0.1 7.3 3.3 14.8 7.5 l 13.8 7.6 l 0.3 -7.8 l 0.3 -7.8 l 2 0 l 2 0 l 0.2 18.5 l 0.1 18.5 l -2.3 0 l -2.3 0 l 0 -7.7 c 0 -4.2 -0.3 -7.6 -0.6 -7.5 c -0.3 0.1 -6.7 3.6 -14.1 7.8 c -8 4.4 -14.1 7.4 -14.6 7.2 c -0.8 -0.3 -1.1 -1.9 -1.2 -7.8 l -0.2 -7.3 l -13.9 7.6 c -7.6 4.2 -14.2 7.6 -14.6 7.6 c -0.4 0 -0.9 -0.2 -1.1 -0.4 z" />
    <path opacity="1.000000" stroke="none" fill="#00aeef"
        d="M 12.6 262.9 C 12.8 262.8 13 262.9 13 262.8 C 15 261.3 16.2 261.2 18.5 262.3 C 20.9 263.4 23.3 264.6 25.8 265.8 C 49.9 277.1 75.2 285.9 101.6 292.4 C 115.1 295.6 128.7 298.3 142.5 300.2 C 166.5 303.5 190.7 304.9 215 303.9 C 258.3 302.3 300 294.2 340 279.8 C 341.9 279.1 343.9 278.7 346 279.2 C 349.5 280.2 350.8 283.5 348.5 286 C 347.8 286.9 346.8 287.6 345.8 288.2 C 329.3 298.6 311.2 306.4 292 312.5 C 274.3 318.1 256 322.2 237.3 324.5 C 229.2 325.5 221 326 212.9 326.8 C 212.5 326.8 212.1 327 211.8 327.2 C 201.5 327.3 191.1 327.3 180.6 327.2 C 180.1 327 179.6 326.8 179.1 326.8 C 175 326.5 170.9 326.3 166.9 325.9 C 149.9 324.3 133.3 321.5 116.9 317.1 C 84.1 308.5 54.1 294.9 27.2 276.4 C 22.3 273 17.8 269.3 13 265.7 C 13 265.6 12.8 265.7 12.6 265.8 C 12.6 264.8 12.6 263.9 12.6 262.9 z" />
    <path opacity="1.000000" stroke="none" fill="#00aeef"
        d="M 382 269 C 381.2 272.7 380.9 273 380.9 273.2 C 379.2 282.3 375.8 290.8 370.7 298.8 C 367.2 304.2 362.9 309 357.4 313 C 356.6 313.6 355.6 314.1 354.5 314.4 C 352.8 314.9 351.4 313.8 351.7 312.2 C 351.9 311.6 352.2 310.9 352.5 310.3 C 356.3 301.7 360.3 293.2 362.8 284.2 C 363.7 281 364.4 277.8 364.2 274.5 C 364 272 362.7 270.2 360 269.6 C 356.9 268.8 353.7 268.2 350.5 268.1 C 341.5 267.6 332.4 268.3 323.4 269.1 C 320.9 269.4 318.3 269.6 315.7 269.9 C 314.5 270 313.2 270 312.5 268.9 C 311.9 267.7 312.6 266.6 313.6 266 C 316.3 264.4 319 262.8 321.9 261.6 C 334.5 256.4 347.8 255 361.6 255.7 C 366.4 255.9 371.1 256.4 375.7 257.8 C 377.2 258.2 378.6 258.8 379.8 259.6 C 380.5 260.1 380.8 261 381.4 261.6 C 382 264 382 265 382 268 z" />
    <text font-size="26em" x="-17.9" y="250.4" fill="#e60010">
        N
    </text>
    <text font-size="26em" x="207.4" y="249" fill="#00aeef">P</text>
</svg>