<svg id="MenuCrunchyroll" height="2500" viewBox="1.8 1.581 247.263 220" width="2250" xmlns="http://www.w3.org/2000/svg">
    <g fill="#f78b24">
        <path
            d="m115.377 209.8c-3.54-.33-12.852-1.943-16.306-2.825-29.863-7.625-55.154-28.074-68.537-55.418-7.337-14.99-10.395-28.396-10.383-45.52.012-17.144 3.117-30.818 10.335-45.52 5.406-11.01 11.625-19.636 20.453-28.37 16.513-16.336 37.43-26.45 61.124-29.552 7.746-1.014 24.143-.684 31.377.631 15.045 2.737 28.553 8.112 40.658 16.178 25.149 16.76 41.461 42.39 45.714 71.828.91 6.303 1.437 19.42.824 20.515-.335.598-.508-.028-.727-2.62-1.086-12.843-6.642-28.373-14.307-39.991-23.298-35.313-66.767-50.295-107.013-36.883-31.064 10.352-54.41 36.615-60.818 68.416-3.169 15.725-2.218 31.139 2.86 46.355 8.953 26.836 30.382 48.274 57.558 57.584 6.41 2.196 14.64 4.026 20.068 4.461 6.5.522 4.861 1.018-3.157.956-4.376-.033-8.75-.135-9.723-.225z" />
        <path
            d="m137.695 196.826c-33.594-2.447-61.427-27.495-67.236-60.507-1.057-6.008-1.261-17.24-.413-22.769 5.036-32.827 30.288-57.733 63.23-62.362 6.676-.938 18.574-.61 24.969.69 5.562 1.13 11.728 3.138 16.572 5.394l3.757 1.75-3.536 1.669c-12.758 6.025-20.633 20.118-18.784 33.619 1.851 13.52 11.2 24.13 24.622 27.945 4.832 1.374 12.22 1.373 17.054 0 6.25-1.777 11.152-4.682 15.613-9.254 1.506-1.544 2.835-2.648 2.954-2.455.119.194.463 2.322.765 4.73.745 5.939.308 17.238-.886 22.88-3.803 17.967-13.386 33.049-28.08 44.192-13.907 10.546-32.305 15.81-50.601 14.478z" />
    </g>
</svg>