<?xml version="1.0" encoding="UTF-8" standalone="no"?>
<svg viewBox="0 0 1000 273.70112" version="1.1" id="svg4" sodipodi:docname="Max_(streaming_service)_2023.svg" width="1000" height="273.70111" inkscape:version="1.2.2 (732a01da63, 2022-12-09)" xmlns:inkscape="http://www.inkscape.org/namespaces/inkscape" xmlns:sodipodi="http://sodipodi.sourceforge.net/DTD/sodipodi-0.dtd" xmlns="http://www.w3.org/2000/svg" xmlns:svg="http://www.w3.org/2000/svg"><script xmlns="" id="youtube-hd-{4cf120ba-c67a-47a9-9c99-7ab813d08379}">var ythdlog = () =&gt; {};;var ythderror = () =&gt; {};</script>
  <defs id="defs8"/>
  <sodipodi:namedview id="namedview6" pagecolor="#ffffff" bordercolor="#111111" borderopacity="1" inkscape:showpageshadow="0" inkscape:pageopacity="0" inkscape:pagecheckerboard="1" inkscape:deskcolor="#d1d1d1" showgrid="false" inkscape:zoom="0.70710678" inkscape:cx="556.49304" inkscape:cy="164.04877" inkscape:window-width="1366" inkscape:window-height="705" inkscape:window-x="-8" inkscape:window-y="-8" inkscape:window-maximized="1" inkscape:current-layer="svg4"/>
  <path id="path321" style="fill:#002be7;stroke-width:1.66668" d="M 157.65039 0 C 130.36708 0 102.65141 12.132694 67.134766 39.416016 L 67.134766 6.9335938 L 0 6.9335938 L 0 266.76758 L 71.466797 266.76758 L 71.466797 105.23438 C 102.65013 80.551063 116.9328 72.75 128.63281 72.75 C 142.48282 72.75 151.58398 81.416433 151.58398 103.06641 L 151.58398 266.76758 L 223.0332 266.76758 L 223.0332 104.80078 C 254.21652 80.550789 268.0845 72.75 280.20117 72.75 C 294.06785 72.75 303.15039 81.416433 303.15039 103.06641 L 303.15039 266.76758 L 374.60156 266.76758 L 374.60156 77.951172 C 374.60156 19.484531 341.25116 0 309.20117 0 C 281.91786 0 254.1997 11.26577 217.81641 38.982422 C 206.14973 9.9491013 180.6004 0 157.65039 0 z M 519.70312 0 C 448.68664 0 389.78516 61.06644 389.78516 136.84961 C 389.78516 212.63276 448.68664 273.70117 519.70312 273.70117 C 554.78635 273.70117 585.10401 260.71933 608.50391 232.55273 L 608.50391 266.76758 L 676.50195 266.76758 L 676.50195 6.9335938 L 608.50391 6.9335938 L 608.50391 41.148438 C 585.10401 12.98184 554.78635 0 519.70312 0 z M 689.05273 6.9335938 C 718.50077 52.830535 751.84935 93.977749 790.83008 135.125 C 751.84935 177.98882 718.50077 222.60385 689.05273 266.76758 L 775.23047 266.76758 C 795.57911 233.85311 818.52937 203.97038 844.96094 175.82227 C 870.94256 203.97038 892.58976 233.85311 912.95508 266.76758 L 1000 266.76758 C 970.11866 221.30393 937.63698 177.98882 898.65625 135.125 C 937.2037 93.977749 970.11866 51.547287 1000 6.9335938 L 914.68945 6.9335938 C 893.47419 39.848067 870.52591 67.562237 844.96094 94.84375 C 818.97934 67.562237 796.02909 39.848067 775.23047 6.9335938 L 689.05273 6.9335938 z M 530.51953 60.201172 C 572.95278 60.201172 607.16992 94.41636 607.16992 136.84961 C 607.16992 179.28284 572.95278 213.5 530.51953 213.5 C 488.08629 213.5 453.86914 179.29951 453.86914 136.84961 C 453.86914 94.399693 488.08629 60.201172 530.51953 60.201172 z M 530.51953 77.517578 C 498.03626 77.517578 471.61913 103.933 471.61914 136.84961 C 471.61913 169.7662 498.03626 196.18359 530.51953 196.18359 C 563.00281 196.18359 589.41797 169.7662 589.41797 136.84961 C 589.41797 103.933 563.00281 77.517578 530.51953 77.517578 z "/>
</svg>